huh,ms,on_off,dunno,noclue,noclue
1,1923, Note_on_c,0,59,98
1,1999, Note_off_c,0,59,64
1,2960, Note_on_c,0,59,98
1,3034, Note_off_c,0,59,64
1,4012, Note_on_c,0,59,98
1,4081, Note_off_c,0,59,64
1,5087, Note_on_c,0,59,98
1,5164, Note_off_c,0,59,64
1,6179, Note_on_c,0,59,98
1,6247, Note_off_c,0,59,64
1,7267, Note_on_c,0,59,98
1,7328, Note_off_c,0,59,64
1,8308, Note_on_c,0,59,98
1,8377, Note_off_c,0,59,64
1,9406, Note_on_c,0,59,98
1,9460, Note_off_c,0,59,64
1,9936, Note_on_c,0,59,98
1,9989, Note_off_c,0,59,64
1,10459, Note_on_c,0,59,98
1,10527, Note_off_c,0,59,64
1,10819, Note_on_c,0,59,98
1,10888, Note_off_c,0,59,64
1,11196, Note_on_c,0,59,98
1,11264, Note_off_c,0,59,64
1,11633, Note_on_c,0,59,98
1,11679, Note_off_c,0,59,64
1,12058, Note_on_c,0,59,98
1,12117, Note_off_c,0,59,64
1,12571, Note_on_c,0,59,98
1,12624, Note_off_c,0,59,64
1,12986, Note_on_c,0,59,98
1,13050, Note_off_c,0,59,64
1,13369, Note_on_c,0,59,98
1,13422, Note_off_c,0,59,64
1,13807, Note_on_c,0,59,98
1,13881, Note_off_c,0,59,64
1,14229, Note_on_c,0,59,98
1,14290, Note_off_c,0,59,64
1,14751, Note_on_c,0,59,98
1,14820, Note_off_c,0,59,64
1,15130, Note_on_c,0,59,98
1,15189, Note_off_c,0,59,64
1,15488, Note_on_c,0,59,98
1,15552, Note_off_c,0,59,64
1,16122, Note_on_c,0,59,98
1,16172, Note_off_c,0,59,64
1,16541, Note_on_c,0,59,98
1,16594, Note_off_c,0,59,64
1,16909, Note_on_c,0,59,98
1,16978, Note_off_c,0,59,64
1,17278, Note_on_c,0,59,98
1,17347, Note_off_c,0,59,64
1,17662, Note_on_c,0,59,98
1,17723, Note_off_c,0,59,64
1,17931, Note_on_c,0,59,98
1,17992, Note_off_c,0,59,64
1,18476, Note_on_c,0,59,98
1,18545, Note_off_c,0,59,64
1,19008, Note_on_c,0,59,98
1,19075, Note_off_c,0,59,64
1,19388, Note_on_c,0,59,98
1,19452, Note_off_c,0,59,64
1,19770, Note_on_c,0,59,98
1,19829, Note_off_c,0,59,64
1,20335, Note_on_c,0,59,98
1,20403, Note_off_c,0,59,64
1,20763, Note_on_c,0,59,98
1,20826, Note_off_c,0,59,64
1,21187, Note_on_c,0,59,98
1,21251, Note_off_c,0,59,64
1,21550, Note_on_c,0,59,98
1,21611, Note_off_c,0,59,64
1,21925, Note_on_c,0,59,98
1,21981, Note_off_c,0,59,64
1,22209, Note_on_c,0,59,98
1,22266, Note_off_c,0,59,64
1,22717, Note_on_c,0,59,98
1,22777, Note_off_c,0,59,64
1,23245, Note_on_c,0,59,98
1,23307, Note_off_c,0,59,64
1,23637, Note_on_c,0,59,98
1,23698, Note_off_c,0,59,64
1,24013, Note_on_c,0,59,98
1,24075, Note_off_c,0,59,64
1,24597, Note_on_c,0,59,98
1,24659, Note_off_c,0,59,64
1,25022, Note_on_c,0,59,98
1,25088, Note_off_c,0,59,64
1,25411, Note_on_c,0,59,98
1,25472, Note_off_c,0,59,64
1,25780, Note_on_c,0,59,98
1,25849, Note_off_c,0,59,64
1,26173, Note_on_c,0,59,98
1,26243, Note_off_c,0,59,64
1,26985, Note_on_c,0,59,98
1,27054, Note_off_c,0,59,64
1,27569, Note_on_c,0,59,98
1,27644, Note_off_c,0,59,64
1,28107, Note_on_c,0,59,98
1,28168, Note_off_c,0,59,64
1,28637, Note_on_c,0,59,98
1,28706, Note_off_c,0,59,64
1,29189, Note_on_c,0,59,98
1,29252, Note_off_c,0,59,64
1,29712, Note_on_c,0,59,98
1,29789, Note_off_c,0,59,64
1,30226, Note_on_c,0,59,98
1,30298, Note_off_c,0,59,64
1,30772, Note_on_c,0,59,98
1,30848, Note_off_c,0,59,64
1,31294, Note_on_c,0,59,98
1,31371, Note_off_c,0,59,64
1,31841, Note_on_c,0,59,98
1,31908, Note_off_c,0,59,64
1,32354, Note_on_c,0,59,98
1,32425, Note_off_c,0,59,64
1,32884, Note_on_c,0,59,98
1,32954, Note_off_c,0,59,64
1,33406, Note_on_c,0,59,98
1,33469, Note_off_c,0,59,64
1,33951, Note_on_c,0,59,98
1,34013, Note_off_c,0,59,64
1,34504, Note_on_c,0,59,98
1,34566, Note_off_c,0,59,64
1,35003, Note_on_c,0,62,98
1,35111, Note_off_c,0,62,64
1,35322, Note_on_c,0,59,98
1,35387, Note_off_c,0,59,64
1,35595, Note_on_c,0,62,98
1,35672, Note_off_c,0,62,64
1,35815, Note_on_c,0,59,98
1,35882, Note_off_c,0,59,64
1,36090, Note_on_c,0,62,98
1,36159, Note_off_c,0,62,64
1,36367, Note_on_c,0,59,98
1,36415, Note_off_c,0,59,64
1,36643, Note_on_c,0,62,98
1,36714, Note_off_c,0,62,64
1,36904, Note_on_c,0,59,98
1,36957, Note_off_c,0,59,64
1,37189, Note_on_c,0,62,98
1,37257, Note_off_c,0,62,64
1,37429, Note_on_c,0,59,98
1,37480, Note_off_c,0,59,64
1,37718, Note_on_c,0,62,98
1,37795, Note_off_c,0,62,64
1,37964, Note_on_c,0,59,98
1,38025, Note_off_c,0,59,64
1,38225, Note_on_c,0,62,98
1,38302, Note_off_c,0,62,64
1,38486, Note_on_c,0,59,98
1,38563, Note_off_c,0,59,64
1,38774, Note_on_c,0,62,98
1,38855, Note_off_c,0,62,64
1,39018, Note_on_c,0,59,98
1,39077, Note_off_c,0,59,64
1,39293, Note_on_c,0,62,98
1,39352, Note_off_c,0,62,64
1,39462, Note_on_c,0,59,98
1,39512, Note_off_c,0,59,64
1,39600, Note_on_c,0,62,98
1,39684, Note_off_c,0,62,64
1,39692, Note_on_c,0,59,98
1,39738, Note_off_c,0,59,64
1,39799, Note_on_c,0,62,98
1,39869, Note_off_c,0,62,64
1,39888, Note_on_c,0,59,98
1,39968, Note_off_c,0,59,64
1,39984, Note_on_c,0,62,98
1,40061, Note_off_c,0,62,64
1,40068, Note_on_c,0,59,98
1,40140, Note_off_c,0,59,64
1,40175, Note_on_c,0,62,98
1,40229, Note_off_c,0,62,64
1,40270, Note_on_c,0,59,98
1,40291, Note_off_c,0,59,64
1,40334, Note_on_c,0,62,98
1,40408, Note_off_c,0,62,64
1,40414, Note_on_c,0,59,98
1,40472, Note_off_c,0,59,64
1,40511, Note_on_c,0,62,98
1,40575, Note_off_c,0,62,64
1,40583, Note_on_c,0,59,98
1,40640, Note_off_c,0,59,64
1,40676, Note_on_c,0,62,98
1,40736, Note_on_c,0,59,98
1,40752, Note_off_c,0,62,64
1,40805, Note_off_c,0,59,64
1,40854, Note_on_c,0,62,98
1,40905, Note_on_c,0,59,98
1,40930, Note_off_c,0,62,64
1,40967, Note_off_c,0,59,64
1,41009, Note_on_c,0,62,98
1,41059, Note_on_c,0,59,98
1,41088, Note_off_c,0,62,64
1,41097, Note_off_c,0,59,64
1,41159, Note_on_c,0,62,98
1,41182, Note_on_c,0,59,98
1,41231, Note_off_c,0,62,64
1,41251, Note_off_c,0,59,64
1,41297, Note_on_c,0,62,98
1,41351, Note_on_c,0,59,98
1,41389, Note_off_c,0,62,64
1,41412, Note_off_c,0,59,64
1,41467, Note_on_c,0,62,98
1,41520, Note_on_c,0,59,98
1,41520, Note_off_c,0,62,64
1,41552, Note_off_c,0,59,64
1,41604, Note_on_c,0,62,98
1,41704, Note_off_c,0,62,64
1,41712, Note_on_c,0,59,98
1,41742, Note_on_c,0,62,98
1,41742, Note_off_c,0,59,64
1,41804, Note_on_c,0,59,98
1,41865, Note_off_c,0,59,64
1,41957, Note_off_c,0,62,64
1,41965, Note_on_c,0,59,98
1,42037, Note_off_c,0,59,64
1,42075, Note_on_c,0,62,98
1,42136, Note_off_c,0,62,64
1,42145, Note_on_c,0,59,98
1,42197, Note_off_c,0,59,64
1,42218, Note_on_c,0,62,98
1,42303, Note_off_c,0,62,64
1,42311, Note_on_c,0,59,98
1,42354, Note_off_c,0,59,64
1,42372, Note_on_c,0,59,98
1,42429, Note_on_c,0,62,98
1,42434, Note_off_c,0,59,64
1,42502, Note_off_c,0,62,64
1,42543, Note_on_c,0,59,98
1,42602, Note_off_c,0,59,64
1,42643, Note_on_c,0,62,98
1,42697, Note_off_c,0,62,64
1,42717, Note_on_c,0,59,98
1,42766, Note_off_c,0,59,64
1,42810, Note_on_c,0,62,98
1,42861, Note_off_c,0,62,64
1,42881, Note_on_c,0,59,98
1,42923, Note_off_c,0,59,64
1,42969, Note_on_c,0,62,98
1,43018, Note_on_c,0,59,98
1,43020, Note_off_c,0,62,64
1,43045, Note_off_c,0,59,64
1,43518, Note_on_c,0,62,98
1,43555, Note_on_c,0,48,98
1,43565, Note_off_c,0,62,64
1,43631, Note_off_c,0,48,64
1,43818, Note_on_c,0,62,98
1,43893, Note_off_c,0,62,64
1,43960, Note_on_c,0,48,98
1,44008, Note_off_c,0,48,64
1,44087, Note_on_c,0,62,98
1,44151, Note_off_c,0,62,64
1,44361, Note_on_c,0,62,98
1,44423, Note_off_c,0,62,64
1,44523, Note_on_c,0,48,98
1,44584, Note_off_c,0,48,64
1,44639, Note_on_c,0,62,98
1,44701, Note_off_c,0,62,64
1,44837, Note_on_c,0,48,98
1,44891, Note_off_c,0,48,64
1,44960, Note_on_c,0,62,98
1,45006, Note_off_c,0,62,64
1,45109, Note_on_c,0,48,98
1,45191, Note_off_c,0,48,64
1,45245, Note_on_c,0,62,98
1,45287, Note_off_c,0,62,64
1,45375, Note_on_c,0,62,98
1,45421, Note_off_c,0,62,64
1,45507, Note_on_c,0,48,98
1,45575, Note_off_c,0,48,64
1,45659, Note_on_c,0,62,98
1,45705, Note_off_c,0,62,64
1,45959, Note_on_c,0,48,98
1,46038, Note_off_c,0,48,64
1,46097, Note_on_c,0,62,98
1,46138, Note_off_c,0,62,64
1,46197, Note_on_c,0,48,98
1,46274, Note_off_c,0,48,64
1,46481, Note_on_c,0,62,98
1,46542, Note_off_c,0,62,64
1,46780, Note_on_c,0,64,98
1,46819, Note_on_c,0,62,98
1,46869, Note_on_c,0,60,98
1,46881, Note_off_c,0,64,64
1,46934, Note_off_c,0,62,64
1,46976, Note_on_c,0,59,98
1,46980, Note_off_c,0,60,64
1,47041, Note_off_c,0,59,64
1,47049, Note_on_c,0,48,98
1,47095, Note_on_c,0,50,98
1,47150, Note_off_c,0,48,64
1,47211, Note_off_c,0,50,64
1,47264, Note_on_c,0,59,98
1,47364, Note_off_c,0,59,64
1,47527, Note_on_c,0,50,98
1,47671, Note_off_c,0,50,64
1,47856, Note_on_c,0,59,98
1,47909, Note_off_c,0,59,64
1,48080, Note_on_c,0,53,98
1,48132, Note_off_c,0,53,64
1,48209, Note_on_c,0,62,98
1,48286, Note_off_c,0,62,64
1,48447, Note_on_c,0,53,98
1,48485, Note_off_c,0,53,64
1,48670, Note_on_c,0,62,98
1,48762, Note_off_c,0,62,64
1,48870, Note_on_c,0,53,98
1,48938, Note_off_c,0,53,64
1,49146, Note_on_c,0,60,98
1,49248, Note_off_c,0,60,64
1,49296, Note_on_c,0,59,98
1,49353, Note_off_c,0,59,64
1,49407, Note_on_c,0,52,98
1,49484, Note_off_c,0,52,64
1,49537, Note_on_c,0,60,98
1,49637, Note_off_c,0,60,64
1,49662, Note_on_c,0,59,98
1,49754, Note_off_c,0,59,64
1,49816, Note_on_c,0,53,98
1,49891, Note_off_c,0,53,64
1,50008, Note_on_c,0,62,98
1,50091, Note_off_c,0,62,64
1,50236, Note_on_c,0,53,98
1,50296, Note_off_c,0,53,64
1,50341, Note_on_c,0,59,98
1,50401, Note_off_c,0,59,64
1,50481, Note_on_c,0,53,98
1,50539, Note_off_c,0,53,64
1,50754, Note_on_c,0,60,98
1,50853, Note_off_c,0,60,64
1,51030, Note_on_c,0,53,98
1,51161, Note_off_c,0,53,64
1,51263, Note_on_c,0,59,98
1,51307, Note_off_c,0,59,64
1,51391, Note_on_c,0,53,98
1,51445, Note_off_c,0,53,64
1,51516, Note_on_c,0,62,98
1,51575, Note_off_c,0,62,64
1,51800, Note_on_c,0,53,98
1,51913, Note_off_c,0,53,64
1,52084, Note_on_c,0,59,98
1,52144, Note_off_c,0,59,64
1,52343, Note_on_c,0,53,98
1,52420, Note_off_c,0,53,64
1,52482, Note_on_c,0,60,98
1,52535, Note_off_c,0,60,64
1,52866, Note_on_c,0,59,98
1,52927, Note_off_c,0,59,64
1,53150, Note_on_c,0,53,98
1,53237, Note_off_c,0,53,64
1,53449, Note_on_c,0,62,98
1,53505, Note_off_c,0,62,64
1,53603, Note_on_c,0,59,98
1,53656, Note_off_c,0,59,64
1,53718, Note_on_c,0,53,98
1,53795, Note_off_c,0,53,64
1,53873, Note_on_c,0,62,98
1,53941, Note_off_c,0,62,64
1,54225, Note_on_c,0,59,98
1,54281, Note_off_c,0,59,64
1,54486, Note_on_c,0,53,98
1,54549, Note_off_c,0,53,64
1,54617, Note_on_c,0,62,98
1,54660, Note_off_c,0,62,64
1,54763, Note_on_c,0,53,98
1,54839, Note_off_c,0,53,64
1,55064, Note_on_c,0,59,98
1,55116, Note_off_c,0,59,64
1,55316, Note_on_c,0,53,98
1,55408, Note_off_c,0,53,64
1,55723, Note_on_c,0,53,98
1,55794, Note_off_c,0,53,64
1,55842, Note_on_c,0,60,98
1,55915, Note_off_c,0,60,64
1,56084, Note_on_c,0,59,98
1,56160, Note_off_c,0,59,64
1,56253, Note_on_c,0,53,98
1,56330, Note_off_c,0,53,64
1,56637, Note_on_c,0,62,98
1,56698, Note_off_c,0,62,64
1,56753, Note_on_c,0,53,98
1,56828, Note_off_c,0,53,64
1,57075, Note_on_c,0,59,98
1,57159, Note_off_c,0,59,64
1,57393, Note_on_c,0,60,98
1,57489, Note_off_c,0,60,64
1,57635, Note_on_c,0,48,98
1,57704, Note_off_c,0,48,64
1,57758, Note_on_c,0,62,98
1,57829, Note_off_c,0,62,64
1,57905, Note_on_c,0,48,98
1,57968, Note_off_c,0,48,64
1,58057, Note_on_c,0,62,98
1,58119, Note_off_c,0,62,64
1,58203, Note_on_c,0,50,98
1,58290, Note_off_c,0,50,64
1,58449, Note_on_c,0,60,98
1,58526, Note_off_c,0,60,64
1,58764, Note_on_c,0,52,98
1,58848, Note_off_c,0,52,64
1,58879, Note_on_c,0,60,98
1,58929, Note_off_c,0,60,64
1,59033, Note_on_c,0,53,98
1,59133, Note_off_c,0,53,64
1,59302, Note_on_c,0,59,98
1,59363, Note_off_c,0,59,64
1,59578, Note_on_c,0,50,98
1,59701, Note_off_c,0,50,64
1,59831, Note_on_c,0,62,98
1,59877, Note_off_c,0,62,64
1,59977, Note_on_c,0,50,98
1,60039, Note_off_c,0,50,64
1,60108, Note_on_c,0,60,98
1,60169, Note_off_c,0,60,64
1,60361, Note_on_c,0,52,98
1,60484, Note_off_c,0,52,64
1,60645, Note_on_c,0,59,98
1,60715, Note_off_c,0,59,64
1,60907, Note_on_c,0,53,98
1,60960, Note_off_c,0,53,64
1,61014, Note_on_c,0,62,98
1,61068, Note_off_c,0,62,64
1,61152, Note_on_c,0,53,98
1,61200, Note_off_c,0,53,64
1,61314, Note_on_c,0,59,98
1,61368, Note_off_c,0,59,64
1,61467, Note_on_c,0,53,98
1,61523, Note_off_c,0,53,64
1,61659, Note_on_c,0,62,98
1,61736, Note_off_c,0,62,64
1,61974, Note_on_c,0,53,98
1,62035, Note_off_c,0,53,64
1,62151, Note_on_c,0,59,98
1,62204, Note_off_c,0,59,64
1,62281, Note_on_c,0,53,98
1,62345, Note_off_c,0,53,64
1,63019, Note_on_c,0,59,98
1,63062, Note_off_c,0,59,64
1,63134, Note_on_c,0,53,98
1,63185, Note_off_c,0,53,64
1,63272, Note_on_c,0,59,98
1,63318, Note_off_c,0,59,64
1,63426, Note_on_c,0,53,98
1,63481, Note_off_c,0,53,64
1,63541, Note_on_c,0,62,98
1,63579, Note_off_c,0,62,64
1,63671, Note_on_c,0,53,98
1,63719, Note_off_c,0,53,64
1,63811, Note_on_c,0,59,98
1,63848, Note_off_c,0,59,64
1,64086, Note_on_c,0,53,98
1,64147, Note_off_c,0,53,64
1,64217, Note_on_c,0,62,98
1,64263, Note_off_c,0,62,64
1,64355, Note_on_c,0,59,98
1,64424, Note_off_c,0,59,64
1,64501, Note_on_c,0,53,98
1,64594, Note_off_c,0,53,64
1,65438, Note_on_c,0,60,98
1,65520, Note_off_c,0,60,64
1,65576, Note_on_c,0,59,98
1,65630, Note_off_c,0,59,64
1,65739, Note_on_c,0,53,98
1,65829, Note_off_c,0,53,64
1,65899, Note_on_c,0,62,98
1,65960, Note_off_c,0,62,64
1,66060, Note_on_c,0,59,98
1,66152, Note_off_c,0,59,64
1,66490, Note_on_c,0,53,98
1,66592, Note_off_c,0,53,64
1,66993, Note_on_c,0,62,98
1,67035, Note_off_c,0,62,64
1,67185, Note_on_c,0,59,98
1,67250, Note_off_c,0,59,64
1,67352, Note_on_c,0,53,98
1,67404, Note_off_c,0,53,64
1,67475, Note_on_c,0,62,98
1,67550, Note_off_c,0,62,64
1,67642, Note_on_c,0,59,98
1,67743, Note_off_c,0,59,64
1,67942, Note_on_c,0,60,98
1,68011, Note_off_c,0,60,64
1,68113, Note_on_c,0,50,98
1,68241, Note_off_c,0,50,64
1,68374, Note_on_c,0,59,98
1,68426, Note_off_c,0,59,64
1,68602, Note_on_c,0,53,98
1,68702, Note_off_c,0,53,64
1,69140, Note_on_c,0,62,98
1,69195, Note_off_c,0,62,64
1,69431, Note_on_c,0,59,98
1,69480, Note_off_c,0,59,64
1,69763, Note_on_c,0,62,98
1,69831, Note_off_c,0,62,64
1,70230, Note_on_c,0,48,98
1,70246, Note_on_c,0,59,98
1,70291, Note_off_c,0,59,64
1,70353, Note_off_c,0,48,64
1,70514, Note_on_c,0,59,98
1,70577, Note_off_c,0,59,64
1,70737, Note_on_c,0,48,98
1,70821, Note_off_c,0,48,64
1,71259, Note_on_c,0,62,98
1,71267, Note_on_c,0,53,98
1,71336, Note_off_c,0,62,64
1,71360, Note_off_c,0,53,64
1,71559, Note_on_c,0,62,98
1,71635, Note_off_c,0,62,64
1,71774, Note_on_c,0,53,98
1,71851, Note_off_c,0,53,64
1,72074, Note_on_c,0,64,98
1,72150, Note_off_c,0,64,64
1,72327, Note_on_c,0,48,98
1,72371, Note_on_c,0,64,98
1,72457, Note_off_c,0,64,64
1,72519, Note_off_c,0,48,64
1,72796, Note_on_c,0,50,98
1,72913, Note_on_c,0,60,98
1,72952, Note_off_c,0,50,64
1,73041, Note_on_c,0,59,98
1,73057, Note_off_c,0,60,64
1,73164, Note_off_c,0,59,64
1,73225, Note_on_c,0,50,98
1,73330, Note_off_c,0,50,64
1,73491, Note_on_c,0,60,98
1,73540, Note_off_c,0,60,64
1,73994, Note_on_c,0,60,98
1,74033, Note_off_c,0,60,64
1,74480, Note_on_c,0,60,98
1,74523, Note_off_c,0,60,64
1,75007, Note_on_c,0,60,98
1,75062, Note_off_c,0,60,64
1,75360, Note_on_c,0,62,98
1,75409, Note_off_c,0,62,64
1,75537, Note_on_c,0,48,98
1,75621, Note_off_c,0,48,64
1,75890, Note_on_c,0,60,98
1,75967, Note_off_c,0,60,64
1,76061, Note_on_c,0,48,98
1,76136, Note_off_c,0,48,64
1,76361, Note_on_c,0,62,98
1,76428, Note_off_c,0,62,64
1,76551, Note_on_c,0,48,98
1,76635, Note_off_c,0,48,64
1,77042, Note_on_c,0,62,98
1,77111, Note_off_c,0,62,64
1,77672, Note_on_c,0,60,98
1,77720, Note_off_c,0,60,64
1,77936, Note_on_c,0,60,98
1,77976, Note_off_c,0,60,64
1,78210, Note_on_c,0,60,98
1,78248, Note_off_c,0,60,64
1,78502, Note_on_c,0,60,98
1,78544, Note_off_c,0,60,64
1,78763, Note_on_c,0,60,98
1,78809, Note_off_c,0,60,64
1,79039, Note_on_c,0,60,98
1,79088, Note_off_c,0,60,64
1,79293, Note_on_c,0,60,98
1,79350, Note_off_c,0,60,64
1,79597, Note_on_c,0,60,98
1,79650, Note_off_c,0,60,64
1,79855, Note_on_c,0,62,98
1,79916, Note_off_c,0,62,64
1,80108, Note_on_c,0,62,98
1,80171, Note_off_c,0,62,64
1,80602, Note_on_c,0,62,98
1,80661, Note_off_c,0,62,64
1,80945, Note_on_c,0,62,98
1,81007, Note_off_c,0,62,64
1,81253, Note_on_c,0,62,98
1,81314, Note_off_c,0,62,64
1,81560, Note_on_c,0,62,98
1,81637, Note_off_c,0,62,64
1,81944, Note_on_c,0,60,98
1,81994, Note_off_c,0,60,64
1,82174, Note_on_c,0,60,98
1,82213, Note_off_c,0,60,64
1,82443, Note_on_c,0,60,98
1,82481, Note_off_c,0,60,64
1,82743, Note_on_c,0,60,98
1,82782, Note_off_c,0,60,64
1,83027, Note_on_c,0,60,98
1,83066, Note_off_c,0,60,64
1,83296, Note_on_c,0,60,98
1,83342, Note_off_c,0,60,64
1,83572, Note_on_c,0,60,98
1,83626, Note_off_c,0,60,64
1,83864, Note_on_c,0,60,98
1,83894, Note_off_c,0,60,64
1,84125, Note_on_c,0,59,98
1,84179, Note_off_c,0,59,64
1,84386, Note_on_c,0,59,98
1,84440, Note_off_c,0,59,64
1,84622, Note_on_c,0,59,98
1,84678, Note_off_c,0,59,64
1,84879, Note_on_c,0,59,98
1,84939, Note_off_c,0,59,64
1,85139, Note_on_c,0,59,98
1,85200, Note_off_c,0,59,64
1,85408, Note_on_c,0,59,98
1,85469, Note_off_c,0,59,64
1,85685, Note_on_c,0,59,98
1,85739, Note_off_c,0,59,64
1,85937, Note_on_c,0,59,98
1,85987, Note_off_c,0,59,64
1,86206, Note_on_c,0,62,98
1,86227, Note_on_c,0,48,98
1,86261, Note_off_c,0,62,64
1,86291, Note_off_c,0,48,64
1,86477, Note_on_c,0,62,98
1,86515, Note_off_c,0,62,64
1,86738, Note_on_c,0,48,98
1,86744, Note_on_c,0,62,98
1,86805, Note_off_c,0,62,64
1,86835, Note_off_c,0,48,64
1,87020, Note_on_c,0,62,98
1,87074, Note_off_c,0,62,64
1,87275, Note_on_c,0,62,98
1,87281, Note_on_c,0,48,98
1,87327, Note_off_c,0,62,64
1,87366, Note_off_c,0,48,64
1,87550, Note_on_c,0,62,98
1,87619, Note_off_c,0,62,64
1,87811, Note_on_c,0,62,98
1,87831, Note_on_c,0,48,98
1,87873, Note_off_c,0,62,64
1,87895, Note_off_c,0,48,64
1,88080, Note_on_c,0,62,98
1,88134, Note_off_c,0,62,64
1,88336, Note_on_c,0,48,98
1,88342, Note_on_c,0,62,98
1,88403, Note_off_c,0,62,64
1,88418, Note_off_c,0,48,64
1,88604, Note_on_c,0,62,98
1,88656, Note_off_c,0,62,64
1,88876, Note_on_c,0,48,98
1,88878, Note_on_c,0,62,98
1,88940, Note_off_c,0,62,64
1,88963, Note_off_c,0,48,64
1,89132, Note_on_c,0,62,98
1,89188, Note_off_c,0,62,64
1,89394, Note_on_c,0,48,98
1,89401, Note_on_c,0,62,98
1,89457, Note_off_c,0,62,64
1,89509, Note_off_c,0,48,64
1,89670, Note_on_c,0,62,98
1,89724, Note_off_c,0,62,64
1,89939, Note_on_c,0,48,98
1,89947, Note_on_c,0,62,98
1,90015, Note_off_c,0,62,64
1,90060, Note_off_c,0,48,64
1,90200, Note_on_c,0,62,98
1,90262, Note_off_c,0,62,64
1,90461, Note_on_c,0,48,98
1,90469, Note_on_c,0,62,98
1,90539, Note_off_c,0,62,64
1,90577, Note_off_c,0,48,64
1,90730, Note_on_c,0,62,98
1,90784, Note_off_c,0,62,64
1,91006, Note_on_c,0,48,98
1,91014, Note_on_c,0,62,98
1,91075, Note_off_c,0,62,64
1,91092, Note_off_c,0,48,64
1,91275, Note_on_c,0,62,98
1,91339, Note_off_c,0,62,64
1,91544, Note_on_c,0,48,98
1,91552, Note_on_c,0,62,98
1,91605, Note_off_c,0,62,64
1,91613, Note_off_c,0,48,64
1,91805, Note_on_c,0,62,98
1,91866, Note_off_c,0,62,64
1,92097, Note_on_c,0,48,98
1,92115, Note_on_c,0,62,98
1,92150, Note_off_c,0,62,64
1,92163, Note_off_c,0,48,64
1,92373, Note_on_c,0,62,98
1,92431, Note_off_c,0,62,64
1,92619, Note_on_c,0,48,98
1,92635, Note_on_c,0,62,98
1,92688, Note_off_c,0,62,64
1,92696, Note_off_c,0,48,64
1,92875, Note_on_c,0,62,98
1,92927, Note_off_c,0,62,64
1,93166, Note_on_c,0,62,98
1,93202, Note_off_c,0,62,64
1,93303, Note_on_c,0,62,98
1,93333, Note_off_c,0,62,64
1,93694, Note_on_c,0,62,98
1,93720, Note_off_c,0,62,64
1,93794, Note_on_c,0,62,98
1,93840, Note_off_c,0,62,64
1,93909, Note_on_c,0,62,98
1,93948, Note_off_c,0,62,64
1,94009, Note_on_c,0,62,98
1,94063, Note_off_c,0,62,64
1,94117, Note_on_c,0,62,98
1,94163, Note_off_c,0,62,64
1,94219, Note_on_c,0,62,98
1,94262, Note_off_c,0,62,64
1,94324, Note_on_c,0,62,98
1,94378, Note_off_c,0,62,64
1,94432, Note_on_c,0,62,98
1,94477, Note_off_c,0,62,64
1,94531, Note_on_c,0,62,98
1,94593, Note_off_c,0,62,64
1,94733, Note_on_c,0,60,98
1,94800, Note_off_c,0,60,64
1,95038, Note_on_c,0,62,98
1,95123, Note_on_c,0,60,98
1,95155, Note_off_c,0,62,64
1,95194, Note_on_c,0,59,98
1,95223, Note_off_c,0,60,64
1,95299, Note_off_c,0,59,64
1,95499, Note_on_c,0,60,98
1,95595, Note_off_c,0,60,64
1,95760, Note_on_c,0,59,98
1,95821, Note_off_c,0,59,64
1,96060, Note_on_c,0,62,98
1,96141, Note_off_c,0,62,64
1,96183, Note_on_c,0,60,98
1,96277, Note_on_c,0,59,98
1,96282, Note_off_c,0,60,64
1,96436, Note_off_c,0,59,64
1,96444, Note_on_c,0,60,98
1,96505, Note_off_c,0,60,64
1,96628, Note_on_c,0,64,98
1,96715, Note_off_c,0,64,64
1,96891, Note_on_c,0,59,98
1,96989, Note_off_c,0,59,64
1,97166, Note_on_c,0,60,98
1,97259, Note_on_c,0,59,98
1,97266, Note_off_c,0,60,64
1,97373, Note_off_c,0,59,64
1,97434, Note_on_c,0,62,98
1,97526, Note_off_c,0,62,64
1,97697, Note_on_c,0,59,98
1,97780, Note_off_c,0,59,64
1,97926, Note_on_c,0,48,98
1,98028, Note_off_c,0,48,64
1,98149, Note_on_c,0,59,98
1,98241, Note_off_c,0,59,64
1,98302, Note_on_c,0,48,98
1,98379, Note_off_c,0,48,64
1,98479, Note_on_c,0,60,98
1,98587, Note_off_c,0,60,64
1,98740, Note_on_c,0,59,98
1,98834, Note_off_c,0,59,64
1,99078, Note_on_c,0,62,98
1,99117, Note_off_c,0,62,64
1,99293, Note_on_c,0,59,98
1,99386, Note_off_c,0,59,64
1,99423, Note_on_c,0,52,98
1,99523, Note_off_c,0,52,64
1,99627, Note_on_c,0,60,98
1,99717, Note_off_c,0,60,64
1,99787, Note_on_c,0,59,98
1,99884, Note_off_c,0,59,64
1,100076, Note_on_c,0,62,98
1,100161, Note_off_c,0,62,64
1,100292, Note_on_c,0,59,98
1,100399, Note_off_c,0,59,64
1,100476, Note_on_c,0,60,98
1,100575, Note_off_c,0,60,64
1,100596, Note_on_c,0,59,98
1,100637, Note_on_c,0,52,98
1,100639, Note_off_c,0,59,64
1,100714, Note_off_c,0,52,64
1,100869, Note_on_c,0,62,98
1,100983, Note_off_c,0,62,64
1,101036, Note_on_c,0,59,98
1,101163, Note_off_c,0,59,64
1,101201, Note_on_c,0,52,98
1,101267, Note_off_c,0,52,64
1,101359, Note_on_c,0,60,98
1,101453, Note_on_c,0,59,98
1,101455, Note_off_c,0,60,64
1,101558, Note_off_c,0,59,64
1,101587, Note_on_c,0,52,98
1,101651, Note_off_c,0,52,64
1,101753, Note_on_c,0,60,98
1,101899, Note_off_c,0,60,64
1,101996, Note_on_c,0,59,98
1,102104, Note_off_c,0,59,64
1,102132, Note_on_c,0,52,98
1,102211, Note_off_c,0,52,64
1,102283, Note_on_c,0,60,98
1,102357, Note_on_c,0,59,98
1,102388, Note_off_c,0,60,64
1,102488, Note_off_c,0,59,64
1,102544, Note_on_c,0,52,98
1,102641, Note_off_c,0,52,64
1,102680, Note_on_c,0,60,98
1,102741, Note_on_c,0,59,98
1,102797, Note_off_c,0,60,64
1,102874, Note_off_c,0,59,64
1,103056, Note_on_c,0,52,98
1,103164, Note_off_c,0,52,64
1,103348, Note_on_c,0,62,98
1,103417, Note_off_c,0,62,64
1,103548, Note_on_c,0,59,98
1,103617, Note_off_c,0,59,64
1,103732, Note_on_c,0,60,98
1,103809, Note_off_c,0,60,64
1,104045, Note_on_c,0,59,98
1,104101, Note_off_c,0,59,64
1,104331, Note_on_c,0,62,98
1,104385, Note_off_c,0,62,64
1,104610, Note_on_c,0,59,98
1,104654, Note_off_c,0,59,64
1,104746, Note_on_c,0,60,98
1,104810, Note_off_c,0,60,64
1,104849, Note_on_c,0,59,98
1,104945, Note_off_c,0,59,64
1,105015, Note_on_c,0,62,98
1,105091, Note_off_c,0,62,64
1,105122, Note_on_c,0,59,98
1,105222, Note_off_c,0,59,64
1,105422, Note_on_c,0,60,98
1,105491, Note_off_c,0,60,64
1,105683, Note_on_c,0,59,98
1,105747, Note_off_c,0,59,64
1,105829, Note_on_c,0,62,98
1,105898, Note_off_c,0,62,64
1,105999, Note_on_c,0,59,98
1,106043, Note_off_c,0,59,64
1,106221, Note_on_c,0,60,98
1,106289, Note_off_c,0,60,64
1,106497, Note_on_c,0,59,98
1,106558, Note_off_c,0,59,64
1,106750, Note_on_c,0,62,98
1,106796, Note_off_c,0,62,64
1,106912, Note_on_c,0,59,98
1,107004, Note_off_c,0,59,64
1,107073, Note_on_c,0,60,98
1,107121, Note_off_c,0,60,64
1,107306, Note_on_c,0,59,98
1,107365, Note_off_c,0,59,64
1,107557, Note_on_c,0,62,98
1,107603, Note_off_c,0,62,64
1,107819, Note_on_c,0,59,98
1,107871, Note_off_c,0,59,64
1,107957, Note_on_c,0,60,98
1,108011, Note_off_c,0,60,64
1,108293, Note_on_c,0,59,98
1,108375, Note_off_c,0,59,64
1,108588, Note_on_c,0,62,98
1,108645, Note_off_c,0,62,64
1,108868, Note_on_c,0,59,98
1,108924, Note_off_c,0,59,64
1,109016, Note_on_c,0,60,98
1,109109, Note_on_c,0,59,98
1,109118, Note_off_c,0,60,64
1,109208, Note_off_c,0,59,64
1,109270, Note_on_c,0,62,98
1,109387, Note_off_c,0,62,64
1,109419, Note_on_c,0,59,98
1,109516, Note_off_c,0,59,64
1,109677, Note_on_c,0,60,98
1,109798, Note_off_c,0,60,64
1,109958, Note_on_c,0,59,98
1,110022, Note_off_c,0,59,64
1,110092, Note_on_c,0,62,98
1,110184, Note_off_c,0,62,64
1,110207, Note_on_c,0,59,98
1,110330, Note_off_c,0,59,64
1,110500, Note_on_c,0,60,98
1,110629, Note_off_c,0,60,64
1,110775, Note_on_c,0,59,98
1,110875, Note_off_c,0,59,64
1,111091, Note_on_c,0,60,98
1,111205, Note_on_c,0,59,98
1,111213, Note_off_c,0,60,64
1,111299, Note_off_c,0,59,64
1,111363, Note_on_c,0,62,98
1,111443, Note_off_c,0,62,64
1,111491, Note_on_c,0,59,98
1,111589, Note_off_c,0,59,64
1,111812, Note_on_c,0,60,98
1,111912, Note_off_c,0,60,64
1,112070, Note_on_c,0,59,98
1,112134, Note_off_c,0,59,64
1,112235, Note_on_c,0,62,98
1,112308, Note_off_c,0,62,64
1,112657, Note_on_c,0,62,98
1,112710, Note_off_c,0,62,64
1,112812, Note_on_c,0,59,98
1,112880, Note_off_c,0,59,64
1,113102, Note_on_c,0,62,98
1,113222, Note_off_c,0,62,64
1,113901, Note_on_c,0,59,98
1,114010, Note_off_c,0,59,64
1,114212, Note_on_c,0,62,98
1,114283, Note_off_c,0,62,64
1,114462, Note_on_c,0,59,98
1,114533, Note_off_c,0,59,64
1,114746, Note_on_c,0,62,98
1,114807, Note_off_c,0,62,64
1,114863, Note_on_c,0,59,98
1,114948, Note_off_c,0,59,64
1,114992, Note_on_c,0,62,98
1,115076, Note_off_c,0,62,64
1,115268, Note_on_c,0,59,98
1,115323, Note_off_c,0,59,64
1,116151, Note_on_c,0,59,98
1,116228, Note_off_c,0,59,64
1,116397, Note_on_c,0,62,98
1,116466, Note_off_c,0,62,64
1,116635, Note_on_c,0,59,98
1,116727, Note_off_c,0,59,64
1,116950, Note_on_c,0,62,98
1,117004, Note_off_c,0,62,64
1,117080, Note_on_c,0,59,98
1,117165, Note_off_c,0,59,64
1,117239, Note_on_c,0,62,98
1,117303, Note_off_c,0,62,64
1,118202, Note_on_c,0,59,98
1,118276, Note_off_c,0,59,64
1,118494, Note_on_c,0,62,98
1,118547, Note_off_c,0,62,64
1,118724, Note_on_c,0,59,98
1,118779, Note_off_c,0,59,64
1,119016, Note_on_c,0,62,98
1,119070, Note_off_c,0,62,64
1,119223, Note_on_c,0,59,98
1,119262, Note_off_c,0,59,64
1,119561, Note_on_c,0,59,98
1,119607, Note_off_c,0,59,64
1,119716, Note_on_c,0,62,98
1,119784, Note_off_c,0,62,64
1,119845, Note_on_c,0,59,98
1,119932, Note_off_c,0,59,64
1,120060, Note_on_c,0,59,98
1,120137, Note_off_c,0,59,64
1,120383, Note_on_c,0,59,98
1,120437, Note_off_c,0,59,64
1,120636, Note_on_c,0,59,98
1,120690, Note_off_c,0,59,64
1,120905, Note_on_c,0,59,98
1,120967, Note_off_c,0,59,64
1,121159, Note_on_c,0,62,98
1,121197, Note_off_c,0,62,64
1,121294, Note_on_c,0,59,98
1,121358, Note_off_c,0,59,64
1,121670, Note_on_c,0,59,98
1,121750, Note_off_c,0,59,64
1,122495, Note_on_c,0,59,98
1,122566, Note_off_c,0,59,64
1,122733, Note_on_c,0,62,98
1,122794, Note_off_c,0,62,64
1,123002, Note_on_c,0,59,98
1,123056, Note_off_c,0,59,64
1,123271, Note_on_c,0,62,98
1,123347, Note_off_c,0,62,64
1,123357, Note_on_c,0,59,98
1,123428, Note_off_c,0,59,64
1,123516, Note_on_c,0,62,98
1,123593, Note_off_c,0,62,64
1,123785, Note_on_c,0,59,98
1,123839, Note_off_c,0,59,64
1,124570, Note_on_c,0,59,98
1,124630, Note_off_c,0,59,64
1,124861, Note_on_c,0,59,98
1,124914, Note_off_c,0,59,64
1,125160, Note_on_c,0,59,98
1,125222, Note_off_c,0,59,64
1,125429, Note_on_c,0,62,98
1,125482, Note_off_c,0,62,64
1,125521, Note_on_c,0,59,98
1,125582, Note_off_c,0,59,64
1,125645, Note_on_c,0,62,98
1,125720, Note_off_c,0,62,64
1,125945, Note_on_c,0,59,98
1,125997, Note_off_c,0,59,64
1,126719, Note_on_c,0,59,98
1,126773, Note_off_c,0,59,64
1,127012, Note_on_c,0,59,98
1,127075, Note_off_c,0,59,64
1,127579, Note_on_c,0,59,98
1,127625, Note_off_c,0,59,64
1,127879, Note_on_c,0,59,98
1,127925, Note_off_c,0,59,64
1,128869, Note_on_c,0,59,98
1,128946, Note_off_c,0,59,64
1,129133, Note_on_c,0,59,98
1,129192, Note_off_c,0,59,64
1,129417, Note_on_c,0,59,98
1,129484, Note_off_c,0,59,64
1,129718, Note_on_c,0,59,98
1,129783, Note_off_c,0,59,64
1,130000, Note_on_c,0,59,98
1,130075, Note_off_c,0,59,64
1,130290, Note_on_c,0,59,98
1,130344, Note_off_c,0,59,64
1,130538, Note_on_c,0,59,98
1,130597, Note_off_c,0,59,64
1,130822, Note_on_c,0,59,98
1,130889, Note_off_c,0,59,64
1,131127, Note_on_c,0,59,98
1,131173, Note_off_c,0,59,64
1,131365, Note_on_c,0,59,98
1,131419, Note_off_c,0,59,64
1,131596, Note_on_c,0,59,98
1,131651, Note_off_c,0,59,64
1,131788, Note_on_c,0,59,98
1,131844, Note_off_c,0,59,64
1,131949, Note_on_c,0,59,98
1,131995, Note_off_c,0,59,64
1,133178, Note_on_c,0,60,98
1,133222, Note_off_c,0,60,64
1,133301, Note_on_c,0,60,98
1,133339, Note_off_c,0,60,64
1,133424, Note_on_c,0,60,98
1,133462, Note_off_c,0,60,64
1,133540, Note_on_c,0,60,98
1,133587, Note_off_c,0,60,64
1,133947, Note_on_c,0,60,98
1,133981, Note_off_c,0,60,64
1,134200, Note_on_c,0,60,98
1,134237, Note_off_c,0,60,64
1,134453, Note_on_c,0,60,98
1,134491, Note_off_c,0,60,64
1,134576, Note_on_c,0,60,98
1,134614, Note_off_c,0,60,64
1,134706, Note_on_c,0,60,98
1,134737, Note_off_c,0,60,64
1,135006, Note_on_c,0,60,98
1,135040, Note_off_c,0,60,64
1,135259, Note_on_c,0,60,98
1,135306, Note_off_c,0,60,64
1,135543, Note_on_c,0,60,98
1,135577, Note_off_c,0,60,64
1,135674, Note_on_c,0,60,98
1,135704, Note_off_c,0,60,64
1,135781, Note_on_c,0,60,98
1,135820, Note_off_c,0,60,64
1,136081, Note_on_c,0,60,98
1,136111, Note_off_c,0,60,64
1,136342, Note_on_c,0,60,98
1,136380, Note_off_c,0,60,64
1,136588, Note_on_c,0,60,98
1,136626, Note_off_c,0,60,64
1,136857, Note_on_c,0,60,98
1,136895, Note_off_c,0,60,64
1,137010, Note_on_c,0,60,98
1,137041, Note_off_c,0,60,64
1,137425, Note_on_c,0,60,98
1,137455, Note_off_c,0,60,64
1,137679, Note_on_c,0,60,98
1,137709, Note_off_c,0,60,64
1,137801, Note_on_c,0,60,98
1,137837, Note_off_c,0,60,64
1,138211, Note_on_c,0,60,98
1,138249, Note_off_c,0,60,64
1,138479, Note_on_c,0,60,98
1,138508, Note_off_c,0,60,64
1,138760, Note_on_c,0,60,98
1,138801, Note_off_c,0,60,64
1,138906, Note_on_c,0,60,98
1,138948, Note_off_c,0,60,64
1,139013, Note_on_c,0,60,98
1,139070, Note_off_c,0,60,64
1,139175, Note_on_c,0,60,98
1,139221, Note_off_c,0,60,64
1,139325, Note_on_c,0,60,98
1,139364, Note_off_c,0,60,64
1,139590, Note_on_c,0,60,98
1,139628, Note_off_c,0,60,64
1,139850, Note_on_c,0,60,98
1,139892, Note_off_c,0,60,64
1,139989, Note_on_c,0,60,98
1,140027, Note_off_c,0,60,64
1,140104, Note_on_c,0,60,98
1,140150, Note_off_c,0,60,64
1,140380, Note_on_c,0,60,98
1,140420, Note_off_c,0,60,64
1,140672, Note_on_c,0,60,98
1,140718, Note_off_c,0,60,64
1,140891, Note_on_c,0,60,98
1,140918, Note_off_c,0,60,64
1,141019, Note_on_c,0,60,98
1,141064, Note_off_c,0,60,64
1,141133, Note_on_c,0,60,98
1,141194, Note_off_c,0,60,64
1,141425, Note_on_c,0,62,98
1,141494, Note_off_c,0,62,64
1,141628, Note_on_c,0,48,98
1,141694, Note_off_c,0,48,64
1,141787, Note_on_c,0,59,98
1,141855, Note_off_c,0,59,64
1,141941, Note_on_c,0,48,98
1,142011, Note_off_c,0,48,64
1,142085, Note_on_c,0,60,98
1,142147, Note_off_c,0,60,64
1,142439, Note_on_c,0,59,98
1,142500, Note_off_c,0,59,64
1,142780, Note_on_c,0,48,98
1,142826, Note_off_c,0,48,64
1,142953, Note_on_c,0,62,98
1,143053, Note_off_c,0,62,64
1,143145, Note_on_c,0,48,98
1,143214, Note_off_c,0,48,64
1,143268, Note_on_c,0,59,98
1,143368, Note_off_c,0,59,64
1,143468, Note_on_c,0,60,98
1,143590, Note_off_c,0,60,64
1,143821, Note_on_c,0,59,98
1,143845, Note_on_c,0,48,98
1,143921, Note_off_c,0,59,64
1,143975, Note_off_c,0,48,64
1,144082, Note_on_c,0,64,98
1,144200, Note_on_c,0,62,98
1,144201, Note_off_c,0,64,64
1,144289, Note_on_c,0,60,98
1,144328, Note_off_c,0,62,64
1,144428, Note_on_c,0,50,98
1,144498, Note_off_c,0,60,64
1,144612, Note_off_c,0,50,64
1,144643, Note_on_c,0,59,98
1,144767, Note_off_c,0,59,64
1,144859, Note_on_c,0,50,98
1,144942, Note_on_c,0,60,98
1,144980, Note_off_c,0,50,64
1,145073, Note_off_c,0,60,64
1,145142, Note_on_c,0,59,98
1,145288, Note_off_c,0,59,64
1,145321, Note_on_c,0,50,98
1,145372, Note_off_c,0,50,64
1,145398, Note_on_c,0,62,98
1,145499, Note_off_c,0,62,64
1,145538, Note_on_c,0,59,98
1,145679, Note_off_c,0,59,64
1,145749, Note_on_c,0,48,98
1,145864, Note_off_c,0,48,64
1,145979, Note_on_c,0,64,98
1,146025, Note_off_c,0,64,64
1,146256, Note_on_c,0,59,98
1,146333, Note_off_c,0,59,64
1,146401, Note_on_c,0,50,98
1,146509, Note_off_c,0,50,64
1,146740, Note_on_c,0,62,98
1,146816, Note_off_c,0,62,64
1,147035, Note_on_c,0,60,98
1,147116, Note_off_c,0,60,64
1,147285, Note_on_c,0,59,98
1,147356, Note_off_c,0,59,64
1,147438, Note_on_c,0,62,98
1,147516, Note_off_c,0,62,64
1,147600, Note_on_c,0,50,98
1,147722, Note_off_c,0,50,64
1,147753, Note_on_c,0,59,98
1,147853, Note_off_c,0,59,64
1,148060, Note_on_c,0,60,98
1,148161, Note_off_c,0,60,64
1,148315, Note_on_c,0,59,98
1,148383, Note_off_c,0,59,64
1,148461, Note_on_c,0,62,98
1,148541, Note_off_c,0,62,64
1,148581, Note_on_c,0,59,98
1,148669, Note_off_c,0,59,64
1,148898, Note_on_c,0,60,98
1,148982, Note_off_c,0,60,64
1,149159, Note_on_c,0,59,98
1,149212, Note_off_c,0,59,64
1,149282, Note_on_c,0,62,98
1,149350, Note_off_c,0,62,64
1,149535, Note_on_c,0,59,98
1,149613, Note_off_c,0,59,64
1,149673, Note_on_c,0,60,98
1,149734, Note_off_c,0,60,64
1,149947, Note_on_c,0,59,98
1,150011, Note_off_c,0,59,64
1,150212, Note_on_c,0,62,98
1,150249, Note_off_c,0,62,64
1,150825, Note_on_c,0,62,98
1,150894, Note_off_c,0,62,64
1,150894, End_track,,,
0,0, End_of_file,,,